<svg width="1024" height="1024" viewBox="0 0 1024 1024" fill="none" xmlns="http://www.w3.org/2000/svg">
<path fill-rule="evenodd" clip-rule="evenodd" d="M681.292 970.171C695.416 971.531 707.453 965.489 716.531 957.96C725.55 950.48 733.468 940.124 740.503 928.501C754.632 905.158 767.9 872.14 779.943 832.747C804.139 753.599 824.773 644.045 836.46 522.671C848.148 401.296 848.796 289.818 840.147 207.508C835.842 166.54 829.118 131.597 819.702 105.987C815.014 93.2354 809.219 81.5581 801.792 72.4946C794.317 63.3724 783.655 55.1444 769.531 53.7844C755.407 52.4244 743.37 58.4667 734.292 65.995C725.273 73.475 717.355 83.8318 710.32 95.4545C696.191 118.798 682.923 151.816 670.88 191.209C646.684 270.357 626.05 379.91 614.363 501.285C612.424 521.415 610.79 541.272 609.451 560.77H632.004C633.308 541.985 634.89 522.849 636.759 503.441C659.934 262.757 718.413 71.4663 767.374 76.1808C816.336 80.8953 837.239 279.83 814.064 520.514C790.889 761.198 732.41 952.489 683.449 947.775C658.569 945.379 640.935 892.834 632.647 810.145H610.037C610.244 812.264 610.457 814.365 610.676 816.448C614.981 857.415 621.705 892.358 631.121 917.969C635.809 930.72 641.604 942.397 649.031 951.461C656.506 960.583 667.168 968.811 681.292 970.171Z" fill="black"/>
<path d="M823.546 560.769H174.796C170.654 560.769 167.296 564.127 167.296 568.269V795.144C167.296 799.287 170.654 802.644 174.796 802.644H229.171H769.171" stroke="black" stroke-width="22.5"/>
<circle cx="291.046" cy="682.645" r="41.25" stroke="black" stroke-width="15"/>
</svg>
