<svg width="1024" height="1024" viewBox="0 0 1024 1024" fill="none" xmlns="http://www.w3.org/2000/svg">
<rect width="1024" height="1024" rx="128" fill="white"/>
<path d="M682.37 958.973C692.492 959.947 701.645 955.69 709.349 949.301C717.024 942.936 724.178 933.745 730.878 922.676C744.308 900.488 757.254 868.484 769.185 829.458C793.101 751.224 813.625 642.451 825.262 521.592C836.9 400.734 837.508 290.043 828.959 208.683C824.694 168.097 818.092 134.211 809.143 109.869C804.679 97.7246 799.409 87.337 793.09 79.6248C786.747 71.8833 778.575 65.9573 768.453 64.9826C758.331 64.008 749.178 68.2657 741.474 74.6547C733.799 81.0194 726.645 90.2107 719.945 101.28C706.515 123.467 693.569 155.471 681.638 194.498C657.722 272.731 637.198 381.505 625.561 502.363C613.923 623.221 613.315 733.913 621.864 815.272C626.129 855.858 632.731 889.744 641.68 914.087C646.144 926.231 651.413 936.618 657.733 944.331C664.076 952.072 672.248 957.998 682.37 958.973Z" stroke="black" stroke-width="22.5"/>
<rect x="572.296" y="560.77" width="103.125" height="249.375" fill="white"/>
<path d="M823.546 560.77H174.796C170.654 560.77 167.296 564.127 167.296 568.27V795.145C167.296 799.287 170.654 802.645 174.796 802.645H229.171H769.171" stroke="black" stroke-width="22.5"/>
<circle cx="291.046" cy="682.645" r="41.25" stroke="black" stroke-width="15"/>
</svg>
